<?xml version="1.0" encoding="UTF-8"?>
<svg id="Layer_1" data-name="Layer 1" xmlns="http://www.w3.org/2000/svg" viewBox="0 0 532.23 532.23">
  <defs>
    <style>
      .cls-1 {
        fill: #fff;
      }
    </style>
  </defs>
  <path class="cls-1" d="M203.45,456.47l-6.92-2.33-2.84,8.43,6.88,2.32c1.7.57,3.27.64,4.53.2,1.23-.43,2.08-1.3,2.52-2.6,1.26-3.75-2.5-5.46-4.17-6.02Z"/>
  <path class="cls-1" d="M154.67,89.93c.32.55,1.03.74,1.58.42l6.75-3.93c5.04-2.94,6.54-7.59,4.23-11.54l-.07-.11c-2.59-4.44-7.14-4.91-12.13-2l-6.75,3.94c-.55.32-.74,1.03-.42,1.58l6.79,11.65Z"/>
  <path class="cls-1" d="M203.87,65.96c.16.62.8.99,1.41.83l9.81-2.57c5.34-1.4,8.01-5.08,6.88-9.39l-.03-.12c-1.19-4.55-5.12-6.18-10.65-4.73l-9.74,2.55c-.62.16-.99.8-.83,1.41l3.15,12.03Z"/>
  <path class="cls-1" d="M306.04,161.65c-13.89,0-25.62,12.91-25.62,28.2v91.04c0,.38.21.71.57.83,2.9,1,9.11,2.8,15.91,2.8,12.4,0,41.37-6.25,41.37-64.2,0-17.66-3.15-58.67-32.23-58.67ZM328.68,225.52c-.17,21.42-10.61,57.59-34.56,51.92-.69-.17-.7-1.07-.01-1.13,20.57-2.71,24.64-29.81,25.38-49.44.45-16.21,1.08-32.07-4.34-47.3-1.54-3.96-4.05-7.53-7.91-9.37-.65-.3-.25-1.21.34-1.08,1.81.08,3.63.49,5.2,1.52,16.12,10.57,16.38,36.48,15.9,54.9Z"/>
  <path class="cls-1" d="M168.11,454.43l-6.62-3.52-3.5,6.6,7.1,3.77c1.58.84,3.05,1.19,4.26,1.03,1.1-.15,1.93-.74,2.47-1.75.56-1.06.56-2,.04-2.96-.6-1.09-1.89-2.19-3.74-3.17Z"/>
  <path class="cls-1" d="M266.11,0C119.37,0,0,119.38,0,266.11s119.37,266.11,266.11,266.11,266.11-119.37,266.11-266.11S412.85,0,266.11,0ZM499.21,265.72c-1.44,7.49-3.85,16.16-9.74,21.78-3.74,3.57-8.32,6.4-12.79,7.91-.98.34-1.84-.62-1.32-1.45,2.51-3.91,8.21-11.09,10.33-15.51-6.47,3.66-13.95,15.79-17.2,23.22-.21.51-1.01.51-1.23,0-2.88-8.14,8.67-35.47,30.65-37.25.8-.06,1.41.6,1.29,1.3ZM453.3,305.67c-1.8,5.57-2.85,16.81-3.34,23.39-.13,1.72-2.37,2.18-3.2.71-9.98-17.47-.94-37.2,2.85-44.63.54-1.09,2.04-1.15,2.66-.14,4.98,8.11,19.73,36.74,2.69,58.6-.67.85-1.99.46-2.02-.6-.3-8.16,2.31-30.68.35-37.34ZM432.85,373.33c-.48,1.36-2.42,1.25-2.75-.14-4.58-20.72,7.99-36.55,12.49-40.75.75-.68,1.96-.41,2.34.52,3.04,7.48,7.7,34.25-9.96,50.55-.54.52-1.4-.03-1.18-.74,1.7-6.14,5.11-19.62,5.6-23.83-2.66,3.52-5.01,9.88-6.54,14.38ZM466.35,238.69c.48.57-.05,1.45-.78,1.26-6.46-1.72-25.03-9.64-22.96-36.11.08-.85.97-1.42,1.75-1.06,4.9,2.02,18.22,6.74,21.37,28.3.13.96-1.13,1.47-1.67.66-3.61-5.38-7.72-10.29-11.28-10.75,1.99,4.07,10.25,13.81,13.57,17.71ZM451.12,192.87c-3.15-7.04-6.03-14.19-12.95-19.32,5.14,9.28,7.89,17.09,13.13,23.96.49.65-.08,1.5-.83,1.34-14.99-3.17-19.67-24.07-17.84-34.88.21-1.12,1.45-1.69,2.42-1.15,13.48,7.97,18.7,19.21,18.54,29.5-.03,1.39-1.88,1.8-2.48.54ZM461.43,289.95c.05.6-.73.87-1.05.38-6.32-10.18-21.29-35.81-11.84-54.78.32-.63,1.16-.85,1.75-.46,3.82,2.62,16.18,12.64,17.52,31.11.38,5.19-.57,10.92-2.34,17.11-.38,1.34-2.31,1.17-2.42-.22-.78-9.17-2.4-19.84-5.63-24.73-1.26,11.49,2.58,16.87,4.01,31.58ZM493.43,220.73c12.65,29.37-5.62,41.54-12.89,45.5-.86.46-1.78-.44-1.37-1.31,2.66-5.51,8.26-16.76,6.89-18.56-7.56,6.71-13.4,27.59-14.86,29.29-.35-1.64-.67-3.9-.65-6.69,0-5.68,1.4-14.77,7.97-25.9,2.5-4.26,9.9-17.77,13.11-22.52.46-.68,1.48-.57,1.8.19ZM482.66,180.75c3.2,6.55,11.3,29.5-3.28,54.21-.54.96-1.96.46-1.86-.63,1.64-13.43,2.29-27.62-.03-24.29-1.94,9.8-2.45,22.54-5.14,31.93-.32,1.06-1.86.98-2.07-.11-1.91-9.91-2.8-24.95.11-39.14,1.83-9.03,5.36-16.13,9.93-22.22.62-.82,1.88-.68,2.34.25ZM465.71,139.11c16.26,25.55,8.76,48.77,1.61,57.82-.24.3-.83.3-.91-.79-.75-10.92-.48-32.63-.48-32.63-3.82,11-3.9,33.41-3.69,44.05,0,.46-.62.57-.81.17-7.99-17.96-7.94-36.62,2.45-68.36.24-.82,1.37-.96,1.83-.25ZM446.6,116.9c.42-1.12,1.85-1.41,2.65-.54,4.73,5.3,16.13,21.14,1.59,46.04-.2.35-.73.25-.78-.16-.45-5.8-.08-24.84.22-32.65-2.65,7.57-3.6,17.34-4.12,23.58-.09,1.14-1.64,1.34-2.05.28-5.66-14.86-.24-29.25,2.49-36.55ZM411.45,107.66c.11-1.15,1.35-1.83,2.4-1.34,7.13,3.47,26.86,15.72,25.22,37.04-.05.66-.94.79-1.21.22-2.18-4.67-7.91-15.59-15.21-18.4,1.79,3.34,15.56,27.51,19.4,33.38.27.44-.13,1.01-.62.82-6.78-2.67-33.72-18.31-29.98-51.72ZM298.33,81.05l10.41-40.25c.16-.62.79-.99,1.41-.83l29.27,7.56c.62.16.99.79.83,1.41l-1.15,4.43c-.16.62-.79.99-1.41.83l-21.8-5.63c-.62-.16-1.25.21-1.41.83l-2.28,8.8c-.16.62.21,1.25.83,1.41l19.07,4.93c.62.16.99.79.83,1.41l-1.15,4.44c-.16.62-.79.99-1.41.83l-19.07-4.93c-.62-.16-1.25.21-1.41.83l-2.37,9.17c-.16.62.21,1.25.83,1.41l22.1,5.71c.62.16.99.79.83,1.41l-1.15,4.43c-.16.62-.79.99-1.41.83l-29.57-7.64c-.62-.16-.99-.79-.83-1.41ZM246.08,36.12h.33s.1,0,.1,0l5.41.03c1.24-.01,2.45.64,3.08,1.73l10.24,16.34c.39.62,1.3.66,1.72-.02l10.53-16.25c.71-1.06,1.85-1.7,3.14-1.66,0,0,4.45.04,5.36.03.67,0,.92.8.54,1.29l-16.03,24.11c-.42.58-.61,1.3-.6,2.02l-.11,15.22c0,.67-.51,1.16-1.13,1.16l-5.45-.03c-.67,0-1.15-.51-1.16-1.14l.06-15.07c0-.72-.21-1.43-.6-2.05l-15.98-24.65c-.05-.1-.05-.19-.05-.29,0-.38.23-.72.61-.77ZM192.3,47.68l17.82-4.67c5.34-1.4,9.94-.92,13.37,1.03,2.85,1.72,4.96,4.54,5.92,8.25l.03.12c1.75,6.69-1.01,11.82-6.03,15.09-.33.21-.38.66-.08.91,2.52,2.1,12.33,10.27,14.16,11.8.45.25.37.94-.14,1.07-.48.13-4.58,1.2-6.65,1.74-.71.18-1.45.01-2.01-.46l-12.41-10.46c-.64-.54-1.5-.74-2.32-.52l-6.93,1.81c-.62.16-.99.8-.83,1.41l3.29,12.57c.16.62-.21,1.25-.83,1.41l-5.23,1.37c-.62.16-1.25-.21-1.41-.83l-10.54-40.25c-.16-.62.21-1.25.83-1.41ZM178.29,158.1c-9.93,13.95-13.6,31.94-4.91,46.87,5.89,10.23,15.86,17.87,27.58,19.94,5.09.91,10.37.41,15.32-1.21,12.06-3.94,20.53-14.77,22.52-27.19l1.28-.06c4.17,17.04,4.64,40.17,3.54,56.82-.38,5.84-4.44,18.96-16.32,22.11-.47.15-.93.26-1.39.36-12.19,2.64-24.59-8.94-20.04-22.31,1.93-6.02,8.38-9.41,14.09-9.41,4.11,0,9.61,2.24,10.02,8.21.24,3.43-1.88,6.43-6,6.63-.36-.12-.5-.55-.27-.82,3.61-4.25-1.21-7.78-4.55-6.07-8.44,4.33-1.86,17.26,8.16,14.73,4.34-.98,8.46-4.82,8.46-13.86,0-15.71.81-30.14,1.87-41.72-7.83,21.2-38.84,28.51-58.11,14.72-23.66-15.06-24.42-52.83-2.27-69.01,1.25-.91,1.96-.03,1.03,1.27ZM236.09,374.18c-.82-6.45-1.24-15.76-1.5-22.22-.72-15.03,1.2-34.58.39-44.68-.83-10.43-14.51-13.38-18.83-5.48-1.87,3.43-1.74,7.83,1.82,10.21,1.25.84,3.77,1.28,5.35.17,1.67-1.17,2.16-3.7.49-5.91-.25-.33-.03-1,.62-.79,3.93.97,5.66,5.65,3.91,9.43-4.91,9.66-19.37,5.48-22.47-4.18-5.11-15.03,10.93-27.3,24.59-20.66,11.11,5.4,12.3,18.73,13.02,27.53,1.04,12.84.83,21.43.15,34.3-.26,6.46-.93,15.79-1.45,22.27-.47,5.92-2.38,13.82-8.44,15.84-.55.2-.79-.41-.53-.7,4.32-3.86,3.54-9.9,2.87-15.14ZM138.09,74.51l13.95-8.13c8.89-5.18,17.35-3.37,21.8,4.27l.07.11c4.96,8.51.72,16.93-7.62,21.79l-6.53,3.81c-.55.32-.74,1.03-.42,1.58l5.94,10.19c.32.55.14,1.26-.42,1.58l-4.66,2.72c-.55.32-1.26.14-1.58-.42l-20.95-35.92c-.32-.55-.14-1.26.42-1.58ZM118.38,106.32c1.05-.49,2.29.19,2.4,1.34,3.74,33.41-23.2,49.05-29.98,51.72-.48.19-.89-.38-.62-.82,3.85-5.87,17.62-30.04,19.4-33.38-7.29,2.81-13.03,13.73-15.21,18.4-.27.57-1.16.44-1.21-.22-1.64-21.32,18.09-33.57,25.22-37.04ZM98.44,382.77c.22.71-.65,1.25-1.18.74-17.66-16.29-13-43.07-9.96-50.55.38-.93,1.59-1.2,2.34-.52,4.5,4.2,17.06,20.03,12.49,40.75-.32,1.39-2.26,1.5-2.75.14-1.53-4.5-3.88-10.86-6.54-14.38.48,4.2,3.9,17.69,5.6,23.83ZM79.28,343.01c-.03,1.06-1.35,1.45-2.02.6-17.04-21.86-2.29-50.49,2.69-58.6.62-1.01,2.13-.96,2.66.14,3.8,7.42,12.84,27.16,2.85,44.63-.84,1.47-3.07,1.01-3.2-.71-.49-6.58-1.54-17.82-3.34-23.39-1.96,6.66.65,29.18.35,37.34ZM68.16,231.73c-.54.82-1.8.3-1.67-.66,3.15-21.56,16.47-26.28,21.37-28.3.78-.35,1.67.22,1.75,1.06,2.07,26.47-16.5,34.39-22.96,36.11-.73.19-1.26-.68-.78-1.26,3.31-3.9,11.57-13.65,13.57-17.71-3.55.46-7.67,5.38-11.28,10.75ZM81.11,192.87c-.59,1.26-2.45.85-2.48-.54-.16-10.29,5.06-21.54,18.54-29.5.97-.55,2.21.03,2.42,1.15,1.83,10.81-2.85,31.72-17.84,34.88-.75.16-1.32-.68-.83-1.34,5.25-6.88,7.99-14.68,13.13-23.96-6.92,5.13-9.8,12.28-12.95,19.32ZM81.94,235.09c.59-.38,1.43-.16,1.75.46,9.45,18.97-5.52,44.6-11.84,54.78-.32.49-1.1.22-1.05-.38,1.43-14.71,5.28-20.09,4.01-31.58-3.23,4.89-4.85,15.56-5.63,24.73-.11,1.39-2.05,1.56-2.42.22-1.78-6.2-2.72-11.93-2.34-17.11,1.35-18.48,13.7-28.49,17.52-31.11ZM82.98,116.36c.8-.87,2.23-.58,2.65.54,2.74,7.31,8.15,21.69,2.49,36.55-.42,1.05-1.96.85-2.05-.28-.53-6.24-1.47-16.01-4.12-23.58.3,7.81.67,26.85.22,32.65-.05.41-.57.51-.78.16-14.54-24.9-3.14-40.74,1.59-46.04ZM66.52,139.11c.46-.71,1.59-.57,1.83.25,10.39,31.74,10.44,50.4,2.45,68.36-.19.41-.81.3-.81-.17.22-10.64.14-33.05-3.69-44.05,0,0,.27,21.71-.48,32.63-.08,1.09-.68,1.09-.91.79-7.15-9.04-14.64-32.27,1.61-57.82ZM49.56,180.75c.46-.93,1.72-1.06,2.34-.25,4.58,6.09,8.1,13.18,9.93,22.22,2.91,14.19,2.02,29.23.11,39.14-.22,1.09-1.75,1.17-2.07.11-2.69-9.39-3.2-22.14-5.14-31.93-2.31-3.33-1.67,10.86-.03,24.29.11,1.09-1.32,1.58-1.86.63-14.59-24.7-6.49-47.65-3.28-54.21ZM38.8,220.73c.32-.77,1.35-.87,1.8-.19,3.2,4.75,10.6,18.26,13.11,22.52,6.57,11.14,7.97,20.22,7.97,25.9.03,2.78-.3,5.05-.65,6.69-1.45-1.69-7.29-22.57-14.86-29.29-1.37,1.8,4.23,13.05,6.89,18.56.4.87-.51,1.77-1.37,1.31-7.27-3.96-25.54-16.13-12.89-45.5ZM34.31,264.42c21.98,1.79,33.53,29.12,30.65,37.25-.21.51-1.01.51-1.23,0-3.25-7.43-10.73-19.56-17.2-23.22,2.12,4.42,7.82,11.59,10.33,15.51.52.82-.34,1.79-1.32,1.45-4.48-1.5-9.05-4.33-12.79-7.91-5.89-5.61-8.3-14.29-9.74-21.78-.12-.71.49-1.36,1.29-1.3ZM34.49,291.94c7.78.71,33.24,8.3,31.92,31.44-.05.71-.91,1.04-1.4.52-3.9-4.04-11.28-12.94-16.77-16.29,3.07,6.28,11.44,14.93,17.92,21.32.38.38.62.85.78,1.34,1.16,3.93,2.13,5.57,3.1,8.02.24.6-.3,1.28-.91,1.09-21.64-6.09-32.3-35.1-36.04-45.61-.35-.96.4-1.91,1.4-1.83ZM42.92,337.93c-.13-.96.62-1.77,1.56-1.72,11.65.74,37.33,13.18,41.82,41.81.14.87-.97,1.39-1.56.74-15.8-17.11-20.94-23.04-23.87-26.75,1,5.57,5.92,12.72,10.6,18.18.62.74-.08,1.85-1.02,1.56-8.67-2.76-24.36-9.61-27.53-33.82ZM60.08,383.55c-.6-1-.05-2.28,1.07-2.63,7.95-2.51,18.9-1.34,26.72,1.79,11.92,4.79,17.18,17.41,15.74,17.97-.43-.05-16.01-10.81-28.32-13.17,3.63,4.32,16.09,10.1,21.86,12.63.78.33.52,1.48-.3,1.51-20.47.59-33.27-12.17-36.76-18.1ZM116.58,420.83c-12.1,3.15-28.87-6.49-33.7-9.92-.63-.43-.49-1.36.19-1.65,4.64-2.08,9.1-3.26,13.21-3.52,4.04-.24,7.86.39,11.31,1.89,2.76,1.22,5.3,2.99,7.55,5.27,3.04,3.1,4.71,6.32,5.27,7.52-.95.11-12.43-8.74-25.03-8.7,0,0,15.06,5.82,21.19,9.11ZM138.25,429.82l-.48.59c-.57.7-1.61.79-2.28.2-10.59-9.29-19.12-20.02-19.28-26.61.01-.35,0-.64.03-.95,0-.09.02-.14.02-.22v-.03s0-.04-.02-.07c.14-6.56-.79-18.67-2.91-21.74-.45,2.25-.63,11.96.66,20.34.15.99-1.09,1.57-1.75.77-2.73-3.27-4.78-6.78-6.08-10.51-1.63-4.72-2.08-9.75-1.38-15.02.81-5.96,2.98-10.88,4.38-13.5.41-.78,1.49-.83,1.98-.1,3.4,5.03,13.13,21.9,8.74,39.99-.82,3.33-.08,6.4,2.14,9,5.54,6.52,10.56,11.26,15.96,15.54.71.56.83,1.6.25,2.31ZM181,451.02c-1.22,2.3-3.09,3.66-5.47,4.04,1.94,2.64,2.2,5.33.78,8.01-1.48,2.78-4.02,4.21-7.08,4.21-1.98,0-4.18-.59-6.46-1.8l-10.6-5.63c-.24-.13-.42-.35-.5-.61-.08-.26-.05-.54.08-.78l12.67-23.85c.27-.5.89-.69,1.39-.43l10.15,5.39c2.91,1.54,4.85,3.62,5.61,6.02.54,1.89.35,3.7-.56,5.43ZM212.56,463.95c-1.34,3.98-4.67,6.15-8.99,6.02l3.85,11.62c.12.37.03.78-.25,1.05-.2.2-.46.3-.73.3-.11,0-.22-.02-.33-.05l-3.55-1.19c-.31-.1-.55-.35-.65-.66l-3.91-11.95-5.85-1.97-3.02,8.97c-.18.54-.77.83-1.3.65l-2.89-.97c-.26-.09-.47-.27-.59-.52-.12-.24-.14-.53-.05-.79l8.62-25.59c.18-.54.76-.83,1.3-.65l11,3.71c3.3,1.11,5.79,3.08,7.01,5.53.97,1.95,1.08,4.26.33,6.5ZM244.11,464.54c-.04.27-.2.51-.42.67-.22.16-.5.22-.77.18l-15.23-2.57-1.19,7.06,13.52,2.28c.27.04.51.2.67.42s.22.5.18.77l-.46,2.74c-.09.56-.63.94-1.19.84l-13.52-2.28-1.23,7.29,15.42,2.6c.27.04.51.2.67.42s.22.5.18.77l-.46,2.74c-.08.5-.52.86-1.01.86-.06,0-.11,0-.17-.01l-19.44-3.27c-.27-.04-.51-.2-.67-.42s-.22-.5-.18-.77l4.49-26.63c.09-.56.63-.94,1.19-.84l19.25,3.24c.56.09.94.62.84,1.19l-.46,2.74ZM291.72,462.4l-8.96,27.42c-.14.42-.52.7-.95.71l-2.58.06c-.44,0-.84-.26-.99-.68l-6.91-18.86-5.99,19.19c-.13.42-.52.71-.96.72l-2.54.06h-.03c-.43,0-.81-.26-.96-.66l-10.32-26.94c-.12-.31-.08-.66.11-.94.19-.28.5-.45.83-.46l3.32-.08c.42,0,.84.26.99.67l7.21,19.41,5.96-19.8c.13-.43.51-.72.96-.73l2.51-.06c.46-.02.85.27,1,.68l6.94,19.48,6.23-19.75c.13-.42.52-.71.96-.72l3.2-.08c.33.02.65.15.85.42.2.27.26.62.15.93ZM307.8,486.8l-3,.54c-.06.01-.12.02-.18.02-.21,0-.41-.06-.59-.18-.22-.16-.38-.39-.43-.66l-4.81-26.58c-.05-.27.01-.55.17-.77.16-.22.39-.38.66-.43l3-.54c.56-.11,1.09.27,1.2.83l4.81,26.57c.1.56-.27,1.09-.83,1.2ZM345.61,476.19c-.12.24-.34.43-.6.51l-2.32.74c-.3.1-.63.05-.89-.13l-20.86-14.15,5.81,18.27c.08.26.06.54-.07.79-.13.24-.34.42-.6.51l-2.83.9c-.1.03-.21.05-.31.05-.44,0-.84-.28-.98-.72l-8.18-25.73c-.17-.54.13-1.12.67-1.29l2.72-.87c.3-.1.63-.05.89.13l20.31,13.79-5.66-17.79c-.17-.54.13-1.12.67-1.29l2.83-.9c.26-.09.54-.06.78.07.24.12.43.34.51.6l8.18,25.73c.08.26.06.54-.07.78ZM304.8,299.82c-11.73,0-19.38-2.29-23.55-4.07-.36-.15-.73.12-.73.51v78.15c0,20.71,16.06,24.84,16.73,25l4.39,1.03-2.07,1.35c-3.91,2.55-8.44,4.16-13.1,4.27-4.88.12-9.06-1.05-12.51-3.42-.33-.23-.77-.04-.85.35-1.85,9.1-5.9,14.85-6.96,16.23-.14.18-.37.18-.5-.01-1-1.45-4.89-7.46-6.96-16.25-.09-.39-.52-.56-.85-.33-3.25,2.27-7.24,3.44-11.79,3.44-7.39,0-11.88-2.94-12.09-3.1l-3.77-2.53,4.39-1.03c.67-.16,16.68-4.29,16.68-25v-65.65c-.31-17.08-8.73-23.78-12.69-25.89-.52-.28-.5-.99.04-1.23,4.06-1.86,12.7-7.88,12.7-25.76v-61.93c0-4.29-.57-8.52-1.65-12.4-1.96-6.87-5.53-12.5-10.23-16.32-6.15-4.96-14.72-7.33-24.33-6.66-7.7.57-14.77,3.56-19.88,8.47-4.6,4.44-7.44,10.23-7.8,15.86-.31,5.22,1.39,12.76,5.99,17.77,3.41,3.72,7.8,5.68,13.17,5.84h.88c.72,0,1.45-.05,2.17-.16.21.05.46,0,.67-.05,11.09-1.36,13.51-10.97,13.77-14.17.02-.21-.17-.2-.27-.03-3.74,6.17-12.37,7.6-16.54,6.45-8.16-2.17-10.49-9.25-10.54-14.31v-.21c.1-9.19,7.64-16.53,18.33-16.06,10.18.57,19.27,8.78,19.27,22.52s-10.48,26.34-28.46,26.34c-7.34,0-14.31-3.1-19.73-8.68-6.3-6.46-9.76-15.75-9.45-25.36.05-1.24.57-12.76,9.3-22.31,1.39-1.45,2.89-2.84,4.49-4.13,5.47-4.34,12.4-7.23,20.04-8.32,10.28-1.6,21.49-.36,31.51,3.36,4.08,1.6,8,3.56,11.57,5.94,1.6,1.03,3.1,2.07,4.49,3.2.28.26.79.32.9-.28,2.18-9.52,6.74-15.33,6.74-15.33h.33s4.88,6.34,6.82,15.64c.24.09.28.1.51.19,7.31-6.5,19.09-13.1,36.66-13.1,34.4,0,57.49,29.08,57.49,72.47,0,78.77-60.22,79.7-62.75,79.7ZM379.48,455.8c-.87,2.3-3.08,6.57-8.17,9.24-2.38,1.24-4.81,1.87-7.2,1.87-1.49,0-2.97-.24-4.4-.74-3.52-1.21-6.5-3.87-8.41-7.5l-.04-.07c-1.83-3.5-2.3-7.46-1.3-11.13,1.04-3.85,3.62-7.01,7.25-8.92,3.89-2.04,7.16-2.5,11.29-1.59.27.06.5.22.65.45.15.23.2.51.13.78l-.67,2.96c-.06.27-.23.5-.46.65-.23.15-.52.19-.78.13-2.18-.52-4.66-.76-8,.99-2.26,1.18-3.86,3.2-4.49,5.67-.63,2.45-.28,5.11.97,7.51,1.38,2.64,3.41,4.52,5.75,5.35,2.41.86,5.03.6,7.57-.73,2.13-1.11,3.96-2.98,4.98-5.07l-2.4-4.59-6.37,3.33c-.5.26-1.12.07-1.39-.43l-1.27-2.43c-.13-.24-.15-.52-.07-.78s.26-.48.5-.61l9.88-5.17c.5-.26,1.12-.07,1.39.43l4.99,9.54c.14.26.15.57.05.84ZM389.68,78.52l-4.42,2.06c-.57.27-1.23,0-1.51-.57-1.92-3.98-4.42-6.94-7.63-8.76-3.93-2.23-7.36-1.52-8.79.99l-.06.11c-1.67,2.95-.68,5.24,5.69,11.17,6.95,6.55,9.44,11.8,5.85,18.12l-.07.11c-4.06,7.14-12.1,8.19-20.11,3.63-5.5-3.13-9.69-7.89-12.03-14.04-.23-.61.1-1.31.71-1.53l4.59-1.69c.59-.22,1.24.1,1.47.68,1.84,4.7,4.46,8.26,8.82,10.74,4.14,2.36,7.88,1.89,9.49-.95l.06-.11c1.55-2.72.86-5.06-5.29-10.73-7-6.58-10.22-11.58-6.21-18.62l.06-.11c3.72-6.54,11.74-7.96,19.32-3.65,5.18,2.95,8.53,6.8,10.67,11.61.26.58-.02,1.27-.59,1.54ZM396.75,430.6c-.68.59-1.71.5-2.28-.2l-.48-.59c-.58-.7-.46-1.74.25-2.31,5.4-4.28,10.42-9.02,15.96-15.54,2.23-2.6,2.96-5.67,2.14-9-4.4-18.09,5.34-34.96,8.74-39.99.49-.73,1.57-.68,1.98.1,1.39,2.62,3.57,7.54,4.38,13.5.7,5.27.25,10.3-1.38,15.02-1.3,3.73-3.35,7.23-6.08,10.51-.65.8-1.9.22-1.75-.77,1.29-8.38,1.12-18.1.67-20.34-2.12,3.07-3.05,15.18-2.91,21.74-.02.04-.04.04-.03.07v.03c.01.09.03.14.03.22.03.31.02.6.03.95-.15,6.59-8.69,17.32-19.27,26.61ZM449.35,410.91c-4.82,3.42-21.6,13.07-33.7,9.92,6.12-3.29,21.19-9.11,21.19-9.11-12.59-.04-24.07,8.8-25.03,8.7.56-1.21,2.24-4.43,5.27-7.52,2.26-2.28,4.79-4.05,7.55-5.27,3.46-1.49,7.27-2.13,11.31-1.89,4.11.26,8.57,1.45,13.21,3.52.68.29.82,1.23.19,1.65ZM472.14,383.55c-3.49,5.93-16.29,18.69-36.76,18.1-.81-.02-1.07-1.17-.3-1.51,5.77-2.53,18.23-8.31,21.86-12.63-12.31,2.36-27.9,13.12-28.32,13.17-1.44-.56,3.82-13.18,15.74-17.97,7.82-3.13,18.76-4.3,26.72-1.79,1.12.34,1.66,1.63,1.07,2.63ZM489.31,337.93c-3.18,24.21-18.87,31.06-27.53,33.82-.94.3-1.64-.82-1.02-1.56,4.68-5.46,9.61-12.61,10.6-18.18-2.93,3.71-8.07,9.63-23.87,26.75-.59.65-1.69.14-1.56-.74,4.49-28.63,30.17-41.08,41.82-41.81.94-.06,1.7.76,1.56,1.72ZM499.14,293.77c-3.74,10.51-14.4,39.52-36.04,45.61-.62.19-1.16-.49-.91-1.09.97-2.46,1.94-4.09,3.09-8.02.16-.49.4-.96.78-1.34,6.49-6.39,14.86-15.04,17.92-21.32-5.49,3.36-12.87,12.26-16.77,16.29-.49.52-1.35.19-1.4-.52-1.32-23.14,24.14-30.73,31.92-31.44,1-.08,1.75.87,1.4,1.83Z"/>
  <path class="cls-1" d="M176.37,446.35c-.45-.98-1.46-1.9-2.9-2.67l-6.35-3.37-3.4,6.39,6.14,3.26c1.38.73,4.75,2.1,6.36-.92l.95.41-.91-.48c.47-.89.51-1.78.11-2.63Z"/>
</svg>