<?xml version="1.0" encoding="UTF-8"?>
<svg id="Layer_1" xmlns="http://www.w3.org/2000/svg" version="1.1" viewBox="0 0 877.5 972.7">
  <!-- Generator: Adobe Illustrator 29.3.1, SVG Export Plug-In . SVG Version: 2.1.0 Build 151)  -->
  <defs>
    <style>
      .st0 {
        fill: #e2ccb8;
      }
    </style>
  </defs>
  <path class="st0" d="M849.5,482.7c-1.9,1.2-1.9,4,0,5.3,2.5,1.9,4.9,4,7.3,6.4,11.2,11.3,20.7,29.2,20.7,57.8v420.5h-372.9c-28.6,0-46.5-9.5-57.8-20.7-2.4-2.4-4.5-4.8-6.4-7.3-1.3-1.8-4.1-1.8-5.4,0-2,2.5-4,5-6.4,7.3-11.3,11.2-29.3,20.7-57.8,20.7H0v-420.5c0-28.6,9.6-46.5,20.8-57.8,2.4-2.4,4.8-4.5,7.3-6.4,1.8-1.3,1.8-4.1,0-5.3-2.5-2-5-4-7.3-6.5-11.2-11.3-20.8-29.2-20.8-57.8V0h372.9c28.6,0,46.5,9.6,57.8,20.7,2.4,2.4,4.5,4.9,6.4,7.3,1.3,1.9,4.1,1.9,5.3,0,2-2.5,4-4.9,6.5-7.3,11.3-11.2,29.3-20.7,57.8-20.7h370.9v418.5c0,28.6-9.5,46.5-20.7,57.8-2.4,2.4-4.8,4.5-7.3,6.5Z"/>
</svg>